<?xml version="1.0" standalone="no"?>
<!DOCTYPE svg PUBLIC "-//W3C//DTD SVG 20010904//EN"
 "http://www.w3.org/TR/2001/REC-SVG-20010904/DTD/svg10.dtd">
<svg version="1.0" xmlns="http://www.w3.org/2000/svg"
 width="70.000000pt" height="70.000000pt" viewBox="0 0 70.000000 70.000000"
 preserveAspectRatio="xMidYMid meet">

<g transform="translate(0.000000,70.000000) scale(0.100000,-0.100000)"
fill="#000000" stroke="none">
<path d="M177 454 c-65 -52 -117 -99 -117 -104 0 -14 232 -200 242 -194 4 3 8
29 8 59 l0 54 38 -5 c152 -20 232 -69 262 -159 18 -55 34 -44 27 21 -16 156
-134 284 -276 301 l-51 6 0 53 c0 29 -4 55 -8 58 -5 3 -61 -38 -125 -90z"/>
</g>
</svg>
